<svg width="19" height="20" viewBox="0 0 19 20" fill="none" xmlns="http://www.w3.org/2000/svg">
<path fill-rule="evenodd" clip-rule="evenodd" d="M16.2316 2.90417C14.4458 1.03232 12.0706 0.000949696 9.5399 0C4.32519 0 0.0811965 4.44221 0.079382 9.90249C0.0784748 11.648 0.514396 13.3518 1.34224 14.8533L0 19.9854L5.01513 18.6083C6.39682 19.3976 7.95271 19.813 9.53584 19.8135H9.5399C14.7537 19.8135 18.9982 15.3708 19 9.91055C19.0009 7.26425 18.0179 4.7765 16.2316 2.90465V2.90417ZM9.5399 18.1411H9.53673C8.12598 18.1407 6.74204 17.7436 5.53454 16.9939L5.24739 16.8154L2.27124 17.6325L3.06551 14.5949L2.87862 14.2834C2.0916 12.9729 1.67564 11.4581 1.67655 9.90298C1.67836 5.36484 5.20565 1.67241 9.54312 1.67241C11.6433 1.67336 13.6175 2.53047 15.1021 4.08655C16.5868 5.64216 17.4037 7.71061 17.4028 9.90961C17.401 14.4482 13.8737 18.1407 9.5399 18.1407V18.1411ZM13.8528 11.9766C13.6165 11.8527 12.4544 11.2544 12.2375 11.1718C12.0207 11.0891 11.8633 11.0478 11.7059 11.2957C11.5485 11.5436 11.0954 12.1011 10.9575 12.2658C10.8196 12.4311 10.6816 12.4515 10.4453 12.3275C10.209 12.2036 9.44738 11.9424 8.54425 11.0996C7.84162 10.4433 7.36709 9.63326 7.22924 9.38536C7.09133 9.13751 7.21472 9.00359 7.33263 8.88061C7.43876 8.7695 7.56897 8.59144 7.68735 8.44707C7.80578 8.30271 7.84478 8.19923 7.92369 8.03442C8.00264 7.86917 7.96316 7.72486 7.90421 7.60088C7.84521 7.47696 7.37258 6.25895 7.17524 5.7637C6.98334 5.28127 6.78833 5.3468 6.64361 5.33872C6.50571 5.3316 6.34832 5.33018 6.19046 5.33018C6.03261 5.33018 5.77674 5.39191 5.55993 5.63978C5.34312 5.88762 4.73254 6.48641 4.73254 7.70392C4.73254 8.92144 5.57946 10.0986 5.69784 10.2639C5.81622 10.4291 7.36482 12.9282 9.73586 14.0004C10.2997 14.2554 10.7402 14.4078 11.0835 14.5218C11.6497 14.7103 12.165 14.6838 12.5723 14.6201C13.0264 14.5489 13.9708 14.0213 14.1677 13.4434C14.3645 12.8655 14.3645 12.3698 14.3056 12.2667C14.2466 12.1637 14.0888 12.1015 13.8524 11.9776L13.8528 11.9766Z" fill="white"/>
</svg>
